<svg xmlns="http://www.w3.org/2000/svg" width="54.252" height="25.323" viewBox="0 0 54.252 25.323">
  <g id="Group_187" data-name="Group 187" transform="translate(0 0)">
    <g id="Polygon_27" data-name="Polygon 27" transform="translate(28.742 12.661)" fill="#44a0c3">
      <path d="M 18.67257881164551 9.892900466918945 L 1.168506383895874 9.892900466918945 L 9.92054271697998 0.7241418957710266 L 18.67257881164551 9.892900466918945 Z" stroke="none"/>
      <path d="M 9.92054271697998 1.448272705078125 L 2.336999893188477 9.392900466918945 L 17.50408554077148 9.392900466918945 L 9.92054271697998 1.448272705078125 M 9.92054271697998 9.5367431640625e-07 L 19.84108352661133 10.39290046691895 L 1.9073486328125e-06 10.39290046691895 L 9.92054271697998 9.5367431640625e-07 Z" stroke="none" fill="#707070"/>
    </g>
    <g id="Ellipse_23" data-name="Ellipse 23" transform="translate(11.735 4.788)" fill="#5a899b" stroke="#707070" stroke-width="1">
      <ellipse cx="21.258" cy="7.873" rx="21.258" ry="7.873" stroke="none"/>
      <ellipse cx="21.258" cy="7.873" rx="20.758" ry="7.373" fill="none"/>
    </g>
    <g id="Polygon_24" data-name="Polygon 24" transform="translate(18.979 2.268) rotate(90)" fill="#44a0c3">
      <path d="M 19.81175231933594 13.98714160919189 L 0.9740466475486755 13.98714160919189 L 10.39289093017578 0.8577696681022644 L 19.81175231933594 13.98714160919189 Z" stroke="none"/>
      <path d="M 10.39289093017578 1.715548515319824 L 1.948099136352539 13.48714160919189 L 18.83769798278809 13.48714160919189 L 10.39289093017578 1.715548515319824 M 10.39289093017578 9.5367431640625e-07 L 20.78580093383789 14.48714160919189 L 0 14.48714160919189 L 10.39289093017578 9.5367431640625e-07 Z" stroke="none" fill="#707070"/>
    </g>
    <g id="Polygon_25" data-name="Polygon 25" transform="matrix(0.545, 0.839, -0.839, 0.545, 12.15, 0)" fill="#44a0c3">
      <path d="M 19.81181335449219 13.98716449737549 L 0.9740485548973083 13.98716449737549 L 10.39293098449707 0.857772171497345 L 19.81181335449219 13.98716449737549 Z" stroke="none"/>
      <path d="M 10.39293098449707 1.715549468994141 L 1.948102951049805 13.48716449737549 L 18.83775901794434 13.48716449737549 L 10.39293098449707 1.715549468994141 M 10.39293098449707 4.76837158203125e-06 L 20.78586006164551 14.48716449737549 L 1.9073486328125e-06 14.48716449737549 L 10.39293098449707 4.76837158203125e-06 Z" stroke="none" fill="#707070"/>
    </g>
    <g id="Polygon_26" data-name="Polygon 26" transform="translate(25.278 12.661)" fill="#44a0c3">
      <path d="M 18.67257881164551 9.892900466918945 L 1.168506383895874 9.892900466918945 L 9.92054271697998 0.7241418957710266 L 18.67257881164551 9.892900466918945 Z" stroke="none"/>
      <path d="M 9.92054271697998 1.448272705078125 L 2.336999893188477 9.392900466918945 L 17.50408554077148 9.392900466918945 L 9.92054271697998 1.448272705078125 M 9.92054271697998 9.5367431640625e-07 L 19.84108352661133 10.39290046691895 L 1.9073486328125e-06 10.39290046691895 L 9.92054271697998 9.5367431640625e-07 Z" stroke="none" fill="#707070"/>
    </g>
    <g id="Ellipse_24" data-name="Ellipse 24" transform="translate(45.749 7.622)" fill="#fff" stroke="#707070" stroke-width="1">
      <ellipse cx="1.417" cy="1.417" rx="1.417" ry="1.417" stroke="none"/>
      <ellipse cx="1.417" cy="1.417" rx="0.917" ry="0.917" fill="none"/>
    </g>
    <g id="Ellipse_25" data-name="Ellipse 25" transform="translate(47.008 7.622)" fill="#707070" stroke="#707070" stroke-width="1">
      <ellipse cx="0.787" cy="0.787" rx="0.787" ry="0.787" stroke="none"/>
      <ellipse cx="0.787" cy="0.787" rx="0.287" ry="0.287" fill="none"/>
    </g>
  </g>
</svg>
